<mxfile host="65bd71144e">
    <diagram id="6iNiEl5mqIRjIXJq6Hge" name="Page-1">
        <mxGraphModel dx="1332" dy="793" grid="1" gridSize="10" guides="1" tooltips="1" connect="1" arrows="1" fold="1" page="1" pageScale="1" pageWidth="850" pageHeight="1100" math="0" shadow="0">
            <root>
                <mxCell id="0"/>
                <mxCell id="1" parent="0"/>
                <mxCell id="2" value="" style="rounded=0;whiteSpace=wrap;html=1;fontSize=93;fillColor=#f5f5f5;fontColor=#333333;strokeColor=#666666;" parent="1" vertex="1">
                    <mxGeometry x="40" y="20" width="1280" height="720" as="geometry"/>
                </mxCell>
                <mxCell id="3" value="" style="shape=image;verticalLabelPosition=bottom;labelBackgroundColor=default;verticalAlign=top;aspect=fixed;imageAspect=0;image=data:image/png,iVBORw0KGgoAAAANSUhEUgAAAnAAAACVCAYAAADYBce7AAAAAXNSR0IArs4c6QAAAARnQU1BAACxjwv8YQUAAAAJcEhZcwAAFiUAABYlAUlSJPAAAELbSURBVHhe7d0FeFNJFwbgs8jivri7u7u7F6c4LS7FSnF3t8XdKe7u7u6+uLvD/+ebTkpbKrmTmzRpzrtPHu7cdKGE9ObcmTPn/JUgi9P/iDHGGGOM2Y1Q8lfGGGOMMWYnOIBjjDHGGLMzHMAxxhhjjNkZDuAYY4wxxuwMB3CMMcYYY3aGAzjGGGOMMTvDARxjjDHGmJ3hAI4xxhhjzM5wAMcYY4wxZmc4gGOMMcYYszMcwDHGGGOM2RkO4BhjjDHG7AwHcIwxxhhjdoYDuABEixqZsmZMKUeMMcYYY7bjrwRZnP4nj0O8COHDUdiwYShGtMgUOnRoqlAyL/3111/k0cFZfoVp1m45SFdv3KPHz17R6fPX6dPnL/Tx42f68u07ff/+Q34VY4wxxphlOEQAV6JwDmpatzwljB+bwv8dlhLE+0cEcnp5++4DvX7zgd5//ETnLt0kzw176eTZa/JZxhhjjDF9hbgADoFZlgwpqWCeTJQiSQKqVaWYfMZ/X75+o8dPX8oR0ZNnr+jO/cdy5CVsmDCUOUMKCmcI/oySJ4kvj/yH33fr7uN06PgFOnjsPN1/+Ew+wxhjjDFmnhARwGEZNHSoUNSgVhka0sNFnvXtf//7H/0yPLD0eenqXTp57hotXrVDPqtu3MB2FCZMaCpRKAdFjRLJ8L14fT9+3bzzkDwGT6djpy/Tr1+/X3J8Lb68QO5MYmbQ6MbtB2I2z+fXMsYYY4yBXQdwoUL9RSUL56RGtctSkfxZKUzo0PIZLwh+Nu88Qlt2HxOzbNdu/Udv3n6Qz+ovWZJ4lCxRPEqXOilVLluAMqVNLoI7n04ZAkfM8o2b4Umh/gpFXdvUoRRJE4jva6HnNvE10aNFpmrlC4vjddsO0cyFG8QxY4wxxhjYZQAXI3oUSpcqCbm1qEWF8maWZ708ff6KTl+4QUtW7aTdB0/Ls8EHGyTyZE9POTKn9jfvbtue49TMbYQc+ZYofmwa3qclxY8bi2o270uv37yXzzDGGGPMkdldANe0XnkRuEWLEslXQPToyQvq2v9fOn/lNr1795F+/volnwl+mCmMGzsmVSlbkHp1aiiWe42QK/fg0XOq5dKXnr14I8/+Fj7c37Rm3mAxizhx5ip5ljHGGGOOzG4CuNJFc4nZLMy8GSFIW7p6F3lu2GMXuz6xnNrD8HdImjgeZUiTjJImiiuf8bJgxTaaNn8d3XvwVJ7xgqXhQ5umkFvvSXTk5CV5ljHGGGOOyuYDOGwM6N+1CdWpVkKe8Zq1Qv21Wi795Bn70KpxVerg4kQZCjcW4zQpEtGYAW0pc/oUvmYT8fc6cfaqr5py2CzxzTDuPmiaPMMYY4wxR2XTnRiwVLpt+Whfwdu6rQepcsMedhe8ZUybnCqVzk/l6naTZ4iu335ATs36UG3X/r7y2zxnDaAVM/tT/lwZ5Rmi9dsOUbLE8eSIMcYYY47MJgM45IstntqHurWtS0kSxhHnzly4QW59JlGb7uPo8rW74py9+PvvsDS6f2vavvfEH/XgMMt2/MwVylS0Cc1avMk7Dw4bH1bOHkiN65QTY97AwBhjjDEjmwvgUFJj37qJVKxANnmGaOCY+WLWzXP9XnnGvqRPnYQ+fvpCk2avlmf812/kHMpRyoXu3n8izxAN7elKq+YMEjtvGWOMMcbAZnLgUNC2g2sNcm9bT54h0RGhrcc4OnfpljxjH9BztXbV4lSmWG6x4xRlQCbNWkUrN+6TXxG0+k6laGD3ZuL3goePX9CRU5eoY6+JYswYY4wxx2UTAVyUSBFo8nA3KlUklzzjtSOzx5AZcmRfZozpRhVL5ZOj31DLTcsuUuxWnT+xB6VOkUiMP33+Sk06DBNLrtw0nzHGGHNcNhHAzRrnTuVL5BXH3759p7otB9CZizfFsb3BTOKdE8v8Ldp7+94jKu7kRj9+/JRnghYpYnhaMLkX5cuZQYzxmsxYtJGGTVgkxowxxhhzPMGaA4c6aMtn9PcO3q5cv0dNOw6nY6ev6Bq8oRguZrPwQJsqS3KqUNjf4A3ixYlFoUNre8mRO4eZuwGj54kxNkS0a1adurevH+CfwxhjjLGQzSoBHArYhgsXlv6JGU3sMMUDy4KHN/3r3Qrr7bsP1LzzSNp7+KwY6wUzV7eOL6XDG6eIx+kds0R+mqX89+i5PPqTPz3uTYJG/DMWbhCdJoyBbQeXGuTaoJKvrg6MMcYYcwwWXULNmyM9NatXQSTxY+YIgRt6lcaKEZUSxPtHfpVXPTTn1oNEOyw94c/bt3YCRYkcUZ75rUWXUbRp51E50g+WUHeuHOurY4TRnkNnqFG7IaLJvqosGVLSsul9KVpUr5lEdG4YPG6hCPIYY4wx5hh0D+Aw01amaG5yca4kZtz2Hz1H5y7dpGVrd4vnEbwd3DBZdFhAILNp5xFq1W2MeE5v6F4Q0GwbCgKjppwlVC5TgIb3bum9XIvg6v6Dp9S6+1hddtQWzpeFZo51F5s/YMSkJTTVEMjxxobghR3DZYvnliPTff/xkzbtOCJHjDFmumrlC8kjbY6eukxPnr2SI2aPdA3gEJyd3D6DXr5+J3LZrty490fC/pzx3Q0fcnnEMZL6i1brYNaMVGAengu4+Tv+TGPAc+POA+o/ai59+vxFt5IlyE8bP6g9xY0dQxTwnbN0s6bNC0FJFD827VkzgSJG8CozMmrKMho/w1Mc26scWdLQylkD5cg2pchTVx79CbPKJ7ZNlyPTvf/4mdIVaCBHjDFmusA+5wKDz2h8NjH7pVsAV7daCZGXNWTCItqy6+gfQRkasv87ohNVLJ1fjLFhwbXLKFHrzVJG9GlFDWqWliPfDp+4SDMXbRTHmMmKZHiULpJLFBLGLOLZSzfpxcs3NH3BBot+j+ZAq63Z49zFcur7D59E2ZU1mw/IZ+1Prmxpad38oXJkmxJmrSGP/sQBHGPM2jiAc1y6ZMDXq16SBrg3E0uEWAryG7wh0X6QR3Pv4O3x05fUyn2MxQOj3sNn0QfDh6NfP37+FJsC8ObFY9Wm/aLuXMN2Q6hg5baUq0wL2rj9MEWPFoVmje1G148sFgWG0R0CZT1sBWrKjZyyTCzRIs9vVL/W3jXjGGOMMRZymR3AVSpTgHq6NaAytbsEuPxYvWIRalS7rDhG8Fa1cU+6eeehGFsSlkgRVL549Vae8TrXsuto2rHvpDzjv7VbDorcvPL1u1Opmp1ozZYD1K9bU9q1ahzNNAR1yZLYRmP5RZ7bqYPszoAcrCVT+3DbLcYYYyyEMyuAixk9Kg3q3swQEI2hew+eyrO+Iajo0rqOHBENGrtAtIWylt0HTlP+Cq1FCY6eQ2dSslx1aOvu4/LZoKFsBxrQ37j9gIpX70iN2g6hqzfu06i+rWnMgLZUJH9W780EwQGzias37acV6/aIMZbx+ndtIo4ZY4wxFjKZlQOHXZ7vPnwSTdj9g9Ih25eP9l7Wm7dsC/UaNkschwR5sqenCUM6iM0bXfpNoZ37T9HnL1/ls9aHpV7jEm+F+u50/vJtuyovwjlwjDGmjbVz4HJmTUtR/SnNFZRL1+7Ssxev5YjpQTmAQz2yeRM9qHStLmLXqX86taxFHV1rih2ZWDrFDBY+rEIS7ALF7slWjauKzhLoVXrr7iP5rD5SJU8olqDv3n9CCzy3BbibNW3KxLRyzkAxM/rl6zeq6OxBV2/ck8/aPg7gGGNMG2sHcBsXDafsmVPLkelQtgvlu5h+lJdQUaB3x75TAQZvyBHr2qauCN5evXknNgaEtOAN0GD+4LEL1KDNYFHKA8uqmJXLkDYZhQql2HpBws5dzHLuWzuRmtevKDaC3Du1Qsz8+efarf+8d9aifdjsse7imDHGGGMhi3IAlzpFQrHLMyAj+7SSR0RLV++SRyHb+m2HqGazvmK2cfPiEVSiUE75jJol0/r4W4h4xcz+8uhPE2eu8i4lgiDarUUtccwYY4yxkEMpgIscKYKYWQuo8n+ZYrmpYB6vHqeopzZ0wiJx7AiwqWD4xMVUwbm76JiwcvZA0XVCK2yMwJKcf/Da13cqJUd/QkkUI1TpRi4iY4wxxkIOpQCuuXNFmrt0ixz5hnpkKNgLyMPq0HOCOHY0l6/dFZs7dh04Rad2zKRyJfKIJVG9ZM2YSh796fiZK7TvyDlxjA0knjMHiGPGGGOMhQxKARzy31Bewz+liuQU+Vdw4cptuvef/+VFHMXUeetEo34U2R3g3lQ0uzfFr//9j37+/CVHf5owc6U88l/TjsNEEAnYHICuDYwxxkIWtKRUeXz89EX+DsxeKQVw2OV48+6fhXixtNfepYYIUh49eUHVGvcSS4qODjNi5ep2o4TxY4uODmHCBD0Thx+uWYs3yZFv6MCA1zcwX79+p8Wrd8oRUY1KReURY4yxkKJwlfZKj0PHL8jfgdkrzWVE0qVOSjs9x4iA5OLVO/KsF5S6GNarhThGvTfUfWO+bVs+WsxQlqnTRQRZAUGQh+3acf6JThEjRqBIEcKLnMNrt+5T+Xqm7y7F8m28ODHFMRqxB/ZnBjdzyoigFyyKLVta5YY95NGfuIwIYyyk4zIitkM5gEuUraY84wUdFzYuHk7pUiUR40xFm9DrN+/FMfNt6sjOlCZFIqrTYoCvNl9GCN6WTusrZjTRzgvFD7Ep5P6DpwF2vAgINjFMHuYmZkVxx1XbNeAdrMHNnAAOOX/1Ww2Uo+DBARxjLKTjAM52KJcR8St/7ozewZvH4BkcvAWitftY0Z5rxawBlCh+bHnWCzY6zBrrThEjhieXTiPpybNX9OvX/+jA0fOagzfYtf8UvX7r9W+BCtooCswYC3lQVBydWNAZpmThnFS6aC4qVSSX2NGO88YuLSEJdtgb/26Z06cQf2c8MDa3DqepMHlh/B7y5kjv/T3ggXQjnA8dSrePWsa86TYDd/v4MgoXLqzoFlC8hluAmxyYFwRqCODQeB4dKgAX4J2eY+nJ89diNgm7ePVQsVQ+mjGmmzjGhoq9h8+KY1vDM3B/wofx3rXad3Jv2HZY9P61tLixY9LOlWPkyHRo84b3ok/YqY3NPlpVatCD7v33RI4sB+kIf/8dRo5M16zjCDpx9qoc6QtBSuKEcWnjomHeQUIow6+oBmD07v1H75Z6P3/9EmkAT5+9tmjbP3Sl+UshgHrw6HmAnWZ8SpwgjljJSJ4kPhn3hSGQMpZMevvuA9Vo3peuXLdcJxr8HV0bVCanioXlGaJIhmDZZ7UBpHb8MrzmuAnHf3jtHzw0/B11zA1HvU8VzwyfMyhE7x+s2CRNHFeOfJs5upsoVK8VqjLsPHBKjgLm33sTwfDYgW3lyHRIO8pRylWOLAedqRZP7S1Hplu0cgeNmLREjrTTJYBzqliEJg31CkLQWL29g5YOUYHlzRcv39CydXto4pD24oN30uzV8ln97F49XrTaem74s7KVaC7P2hYO4Pw3d4KHqK2oBT4gshRrJj7ILGl47xbUsFZZOTIdZqFR+NqnFEkTiBsY3AhqgeAkZd56Fs3vRN7q9aOLNc+k4OetbJ1u9PT5K3nGfAgQXBtWEu+JgLqymGKF4ZqD2fkRk5fo/tpdPbTQVxBpqnzlW9N/j57JkW8I0Dw6OFP5EnkpYXz/a2T6VLZO1z/ytM2B4LBJnXKiNFNgdThNgQ9uLCeeuXDD7EDaEq208H6/dXypHFlXw7ZDaPfB03LkBTeyuIFCWpEWCJzrthxg8Q0bu1aOFbGRFvjeWnQZRVt2H5NntFOe1/VZDiNDmt/RuN+LMgscgt1aVYqLN8Ch4xctErzBJXkhix0rOjU2XISY/di4/bA8Mh0+5HGjZUn4M1SCN8ws+3edEKUNPmtvt4drUbXyv2dBLKFl4ypKy2BnL97UJXjDTBsC3CnDO9G90yuod6dGZgVvgC4vLRtVEasnyLHFUp8twt8d6Tlnd88mF+eKJgVvesLKCF7r41unUb+uTcwO3qBBzdLkOWsA3Ty2RLz2WgMTR4OWnUGVzvIP3jvpU3uldlkKVri0Bm9w78ETOmhmYKkcwCEJ3whvRkCUu2PfSXHMTNOgZhnRqQF3wJbcRblo5XZ55Pvfjtm+A8cuiLs1reLGiSlyciwFrd5U/Dt3rTz6U72WarOoHV19p3TozdnJ6xqnFWYa9VCxVH7avWqc2JRkCWjPt2XpKO8d67akuiE432X4u6MDkLUhyMXrsmrOIHHzawlLp/cVrRejRY0szzD/jJvuGeDsbGA6tayteVZfC+SWq1jouV0ssZtDcwB39cY9QjpF+PBexXqxG8U4VX7oxEXxqx5CevunOP/EEI3va1cpRomz16TiTh3F8gDKhljCsdNXvPMSLT1bwfSFXcizl/hfEzAwmDGqUragHOkL+T/ZM6eRI20CWrYBLHmh/Z5W+H7KFs8jR/pC0KQy63PYcD00d3nsn5jRxLLytFFdLD5LkzJZArFM5VyjtEU/8EyFgA0zhBNleo41oRJA6yZVadzAdmLjlyU3RODnFDll25aPoiZ1y1v0z7J3O/cFnUPnV/RokallwypypC/8TKpcYxGITl+wXo7UKc3AIRnzr79CiaULY+4bkiFVlnp8whu5RsUiYk3/zolldGbXbLGDKqRBkIYLZZjQobzrimGHaac+k8XfWWWpxhTGpHa8oZF8zuxH/1FzRQK6VjUqF/OV7qAXLBlgaUkrJJWjQ0tgjpy4JI+0wYe9JXRpXUceabNy4z55pAYBxLk9cyh9Gu3LM+YY2bcVtW5czSLvGy2QGN63S2M5sh7MtB3cMFksU1sTNmYM6eFisfdxSLD/qFeLSK1qVSlmkRSBTi1qUfy4seTIdIGtQmihFCms3rhfrCtjuj1aVK9G7V++fhUlL1ThYjF+cHtfd1sIdPavn0z5cmaQZ+wbonVsWli/cBjVazWAOvaeJJ/xcvD4edFhoVn9CvKMvnYdOE3PXrwRxyP7thS/Mvuxcv1eeWQ63ADp/YGAn1W3FtqXLBGAlqvntRs6MEPGL5RH2iA1ADPbekLulcoFGjzX75FH2nVvX596dAy+2oDd2tYVwZOlbiaDgg0ayBGzNszkYrkWwVRwQeCIR3AH0LYIs/foRKQV8kf1nqHHJIjqZ7Veu9KVfjqv3rwv7lLwJkedG0DbJ3N6q6VOnlDsZvULQVybpsF/N2gOTMejF+mVgwsoSuQI1KTDcDp47M/kReTB5S7bkto2q26Rem1Yb0dJAUDiLE/V25e+I+fII20ql8mv6/Ib0iYwO6LVmk37TSoRgV2l2EGoFUryFCuYTY70UaxgdrH7USuULlDJWwQso7Vr5hRswZNRi4aVxbUoONJZJhhu5q0NM52HN/0rdjwGN8y+Fiug73s5pMB10JTriF9lDTcFen7mZUqXXGmnNdJE9Cpvo3SFWLBiK+XOno4qlMwrzxDNDqBvp6mKGi6UAUGtn9Chg/dipgrLTCe2zaAZY7qKLfII3pBHGJhla3fTtJFddL+AIx/n02evIBsf6Nkyaa+mzYLPh4+flZJes2ZMRTGi6ZMgjRupjq415EibPiNMD0CRr6lSKws5S3rq3amhPDIdim4/f/lajrRBr+TBHs1t5uYKM4GtGlt3SW/G6K5iY5c14YNYtYSRpUwd1UVpd2NId+3Gfbpz/7Ecma5SmQKGG89UcmS+OlWLyyPT4ZqGsiZ6UYoQkO+WNmUSypcroxhj2Q8fLqqQMFuyUA45+tPPn7+QeGdXsKOoU8taIpfi33lrqWjVjqJtlrGgZmBmLNhAdx88ocwKsxxB6TdyrvgVwaFx9jQkQJCPDxs9H1prr1lDM7cRmmd2EHRhZkEP+GBFdX+tcH0wzv6a4sadh6JGlgr82+lh7IC2SjP/b959UJp9w81eOxcnpT/Tkrq3q6/70nRAEiWITUWsPPOEVKCjm6faXBkVpD/gPch8QypG90HT5Eib+k4l5ZF5sPO0Yun8cmQ65PfqWZtTeYrn0dMXonUJ3FWogo47TCwTYofV5QMLKHasaAEWkzx+5oqulastBRdeBBLYen5y+wwqVTSXWEqZuXADvXrzTn5V0PC1Q8cvMtwRDlGaog0MXkvA94o8l5AiScI41MGlhq4PW1zCwL/ffw+1t1TDMqAeO5zz59Kej4qbliYdhsmRafD/1GiqVqYkfhy1nDWf8PMRW+H1QuDWoddEOTIddlxeO6y9ULC1rJk72Co7U9OmSmL1jWvFC2YXG7tsUZYMKUSHEuYbqiqoTBphh7W55WhwbWjbtJocaTN5zmrl1Ar/KF8tfC4Dnjp/XR6ZBst3a+cNoTXzBtO46SuoUgMPKlmzs7/FPZErNnyieqsJa8HdG/5OmHFDf9MK9d2pYv3u8lnt0Bro8vW71LlVbXlGP1t3Hxe/2uqHBQsYcj88hsyQI21w8TIHfm5nj9P+nkY3gotB7Dz1D+60kVurFXacmRsEYHMWPti1GjVlqVIbQZQq0XvZ1NwaUz6hXVOhPFnkyHKsvVxbt1oJGtzDRY5sCwpeowE8CryzP81avFEeaVO1nHm1FCOE/5uKKtzc7zpwyt/cd3Mof4JfuXFfHhmi4VOX5VHgsMPHrUUturBvnkjky1y0KW3aedQ7oc+tzyTRWmLxqh20ZPVOsdW2rcc4TbNX1oQPNMzSYIkBraoOHDtPCbPWoLHTVphdlBcfXujSUN5HnqFeUFcMrF2egOlj/5FzdPnaXTkyXfvmarlrRs3rV5RH2uBnGe3CVARWMy4w+9f73uGtFcp3aF3KRODmtwWQKYrmz0qDupvX3g539Whj2KjdUHENwiNdwYbexxNnrhLXVXP6Ky+Y3FO0WLIka+7+RMBcs3Ixs/9OmC3GzsiFntvEDYffB97/SDMyFSZHxkxdTukLNRKTGnoG4qbC+8T43vH7UE1tQDDq3+/n92HqzxDe7yq6tK5t1ixcn86Nld4zR02Mk7RQDuCMy6emwIUQP5iHNk6hjOmSib6PxppkfiGgcx84jboNmCrKCSBvzBLwPWEGCg8td774/3B3j3o9d08up3kTe4hgK2+5VjT632Xyq/Rx885D2nf4rO4VyK/d+k8eeV3EmP1Zs+WAPDIdlsA2LNS2lOlTn87a62IhqBk1Rf3nQrWHIXK2VGbQALMyPhuSm+qd4YNWpfdmB9eaZu30xFISioHjhg93+f5Bv1NcV1PmqUdv3qrn4PTv1kQe2QZce3GDjwfeZ8YgAJMCP5A7HYgY0aKI6gDmQOUF9AWv2bwveQyeIRq2+33gs0xUF/AYJ77fgCBoQh9QrEZhEkBlJteR3Lr7SPTz1QrlP3Ipdk9ARYlGtbW3D0QQjt63elMO4BLG+12Z/FIgswG4EC6Y1FNUmcab3LXzKPlM8EHQNmd8d9FT8P4ZT3G3PWFIhwCXFBHkoHQCihZvXDyczu+dK+5CcEeRLFcd3QM3n1Zu2EfbV4yxWKDVtXXIyYNzJJiFU4GNKyrvJXQEUKFHb98u/abII21Ug6JwijMy+Su0lkemw41trmxqHybQfdB0ylBIW2Cds7SrCCZUqJRU0RtypRGsYkNPkuy1xEoOHuNneMqvICpVq3OQu/33rp0gj7TDjGfX/v9SmvzO8kzQ1m45KL5f7FL2CbU58e+B4FplBteR9RkxW2mFrn+3pvJIm6qKnW1WrN9DDx+bPgtrKuUAzmffNuS4+AetWfatnShKV2Qo3NgiU4haIaBE7h12GBqXSPChVrNSUdGw2jgzVyB3JiqcLwu5NqxM9055ijyJmDGiiry25Lnriirrloio/ULBP+zMKpxXv/wTn/9ekXSe3WPWgZkeJPJqlSRRXMqRRVsLLAR8KxSLqurR33f15gPey/5a4CZNa7CKrx/koX05E61xsDtfq2yZUinN9sHQCYtEj+PAZnX8g5keBBMqs5tYcgwueC9NmbOGUuSpK5bPtu3xyuVVgQ09qrvwEbwhWF+6Zpc8ow3KSKBU1Mmz10Qx9+wlm4t/D6YdZp9VroOpUyTyt+5sUBAjaIVdp301lFDSQjmA83lhRLDjF5pob1oyknoNm/lHx4HghC3jqIvlH9RgOrZlGh3dMpWWzehHcyd40JadRylfhVZUrXEvcm49SH6ldfUZPls0JtfLuYu/e00iyGb2qVW3MfLIdPi5HT9IW5FU7AxMmVT7+wRLdRvMbK8HWEpSuUjDkB6u8sg0qvUX1239cwOWKUb1byOPtMFrMnWeee14kC8X0M7/wKj0hTUXgmNsDEPQqgeVUjiAfLfO/SbTg8fP5Rk1KIPh1LQ3rdygvbsK8+2w4iYPFOnWApvAMqZNLkemW7JaLdA3hXIAZ8yBw92Ic41S4tioY4uaoqDmgFFzae/hs2YlzuoNiftYx/YPNiXMW76FytdzF1PdqfLWFz+omPr8/v2H/CrrQxKsh061rVjIgZlU/HxphVI3WvLDWjWqEuDPTEBwXShdu4scma9N97HySJu8OTOY/L2jkwNSJVSMnKR9pzxuclV2y4oSK837itfYHLguYzZL67XN2r06kbuXOl99pRnOgPg36WCKl6/f0YZt5t+UYDe51plT5r85SzeLfDitCuXJpGn2O4/h51XF3GWb5ZH+lAM4o6VrdlLpor8LnuIC6OpciVq5j1WeYrakazd/7571C3e12PlqqY0Tqn7+/Ck2NKg21fbL3LtHZhvwQY48TBWoVWgKFJdVWTbD8pyWnXdBQbCCBG+t0qZMLAJWUyDPL4GP3F5TlavbTenDGMGlitv3HotAAuWK9Hh80Zgs37BmGXlkWaj92aLraLF7Vm/VKxSWR9rUbzXIpiYkmJcBo+eJ66EW2MxgapkuzDoH1mwgIFiFsETum5HZARzMW7ZF1F7Cjp454z2opks/On/5lnzWtmCnWEAvqKeNTmfjw+vx05eULnUSeYYxL8ivUAkeyhYzrThoA8UP6wFj5skj/agW8967xrRk9TEKy5m48799T/vdP4RT3GSBtIfDG6fQsa3TdHlonQVEnrCly4lAO4/xtHXXMTkKfqjhdema9l3GzPKOnrqkVNgXq4WmlK5pWKusmKHXAgFl047D5cgyzA7grt38jxYZ7pBG9G5F/47oRBNmrgxy909wQkTcuMNQ744EgBd6y+5jYqreVmGaOEnCuLpXQ0dTclutQs5M07mv9l2aeB+ZUtCyXAntdQgRaOnVrNkn7N578uyVHGmDpOXA4OcA7XG0ev/ho65Le/ZC65K6VtdvPxD5k5ZYZsydLZ080sZWJyWYVzmXHooFzmtUKiqP/IfZt/bNneTIdCjXdUGhgLkWZgdwew6dEV0D8IGAAAizcbYOHy5OTfuIPDc8kuaoTS6dRspnbdP5y7cpftxYFCkC7xplvm3acURcwLSaMtzNeye2fxDYI09Lqy4KAaUpcKOVT6FUBwS1i7uSQl9DqNm8n+alG6NQf+myABIi1XbpJ4/0V6daCXmkDXb8Mtu1ZrP22piQJmXgN3ctGqrlfE6evZo+f7HszZ3SFaSEn7VgNI9G/Rr0j7QXuOji7s74sHX4fk+du0YRIlh+6cIe7Ttyzlc1bz0eARWbtjW4SIxQSKJH8OYUQC4QkntP7dD+98fsG0rfWAoS7lVqZaE0SGDBahuF3oYo/WDOBdramwH0Etrw3siQJpkc6W/a/HUBlqYKTuZuGmGWp1KOBSsRWTOmlKM/qVRqOHvppnJAqYVSAOfzAoom9M3qVRAJxqjTs3ByL821l5hpDp+8RCP6tJIjxn6bvWST0ofe8ADeT7FiRlMqp4HOIfceaG+2r4Vq/a/NS0bII99O75wZaHAXkA3b1UqH2Dtc3y1ZSmT6gvXyyDKwsYWFTKqzpMN6tfR3Ryry41Q6usxfvlUeWZbZc/iolYaihNB35BxR/NYaCa6O6Mp17f0vmeNQqbmGXab+KV4wmyirowVKI6C2mKUtWqm2KzGgIA0zSiq27VHr08oChjyzN+8+yhFj2qAnrcoMfca0yShhgthy9NuqOWq1X6/66BVvSWYHcNjR2X/UXHGMXSATZ62iJdP6ijHT14tX7yifYumBgDx/8VqpmCezPUcNFy8Vi6f2kUde0IJqzIC2cmQ6442cNajcaaN2pd9CnCUL51RqE4bOMqq5byxgKOFk6R6gKq2XmP1Aey2tqQ3YlDOqr+/VCFTViBdXewF97Fa21oYXswO4Mxdv+LqQrdq0X6wZqzaS9gntTtCU2usRXZ51XAi28MbUcyfq42evLJ5oyaxj086jSo3KC+XJ7Gsr/exx7vJImxevrJe3NHn2GqXi2ttXjJZHXlT+rqgD9vGT9pIFIQVe9x37TsqRvlRKQWj1/KVanc+AZquZbbl7/4nYAapVQcN10OeqQ4K4sTSnkWAVok6L/nJkeWYHcH5hR2olZw+aOLSDPKOmWvlCdGrHLDqzy+uB415uDeWzjgk17L59+0FlfBROZswn5zaD5ZHpcPc5wN2ruTNqHaE/p1aYxR01ZZkcWR56j546f12OtEFLHGjbrLrmZWLYsuuYuFAz/Q0dr0+rLEsIzj6wTJsTiq33kM9v1E+h4b05/XlVKAdwKCAaECQxn7lwg/p1bSLPaJMkYRyaNNTN12YIHGOnWKrkCeUZx4M7358/fyklXPuE6ussZLp45bZSHcYyxXKLny0UddXa5Bsz8DWa+16GtQbVO920qbyS2LNmCHjnWWDcdOrtPHW+Wi/T7XtP0Mbth4PtgZne7z+Cr7Wguc766AWtRa5s2usEsuDRf/Q80a1Eq9pVvIJ0dD2KFUPbdRCQQmZNfyXI4qSUyHHv9AqxawN33uin5xeW+W4cXUJlanfV/IGyZ80EShNA4U2U0qjSqKccOZ7jW6fT4HELaP029R1wCOBQgR1Qx6+BwqyNJeACuW6+WhI8yojUbzVQjoIH2jCd2DZdjkz3/uNnSleggRyZL2miuHR4079yZLrhExeL1jLIgdMC3QhKOLkpd0owR/P6FWlg92ZyZBp8n5kKN6aLB+Zr6oUIaF22bqv2UgX+6da2Lrm1qCVHpsPNcaUGHnJkm64eWkhRIkeUI9PlK99azK5a2sNzah+06JNtawV9Vf8u6BKAmwGtNi4artQzWM+fHVM0qVuehvRwkSPTeQyeIfo/J0sST54xHcpPWZPSDFzrJlW9L3wB5WMhsOvYayJNG9mZ0qXS1gIqsF2soUPrvuprF5wqFhE/OAnixaLJw91oaE9Xk3s8+pXWx7/H+UtcXTykUS3jUaVsQc3BG4ydtjxYgjf4oJCLhmtXf/dmmoO3d+8/ihtIvezYd0oeaZM0cVylnq3sN9UgceGUXhQhPOfC2QPV5cwhPV3Ez5hWnfpOlkfWoxQN9ezYkK76aApfJH9WeeQbiuo9evqS2mlsQ/Hk2Ut59CdH3GKOXXLjB7cXdz1YPkViZeM65Wj/uklKO+gSJ/ydsI5/HxbyDJugPZcoQ1rtxVlR3FSleKZeVqzbI4+0qatQjR8J9o+e6teY+uzFG0pFxLHEXbpoLqU6fczL+Ome8kgbLKvVdyolR+owSWHpdmSODv3Dxyn8O+PnSmua0rMXb2jXfrUbMnNovgJg1gd/t+s+dnkEdCFBbkxr97EUL05M0QzWVI3bD5NHf1Lp+2jv1swb7O9rjLzArm3qyJHpkiX+PTXM7WFCppUb98kjy7J00dWg4BpTskYnObIsFCvXuxq/a+dR8kgbzMC3bV5djphWbxUnAvDBjg0/5m6oww357lXjNX0uMu0mzbZOTtq85VuUcu7MpTmAQwVuNGhdtXG/PEOiR2dAsNlhzNTlNLhHc8qT3bS+iliqQD6Tz7trzPjVaNaHnj5Xa2Ztz1IkDbiVR8SI2nujhpPLZMHxhmPWgabvKOljaSo5NHrDtQFdYCzp9PnrvlYd9HL52l3l5WckWjeoWUaXmTjM6jWq7TjBxJbdx8SsiQoEca0aV6UOrjUoUsTw8qxpyhbPQxsWDqPKZQqIclvDe7egc3vmkItzRc2bh+zNsF6uFDmSdXt5Y+PfMcUdqaZ68Pg5TZm9Ro6sS/NPftJE8ejA0fP05evv2mFB7QxFdeQx/y4XHf1NzbFBUnrv4bNEgjQSA3GXffTUZfmsYwmsUfmvn9qXYIwXakwxs5Cr55AZSrXSTPXoyQs6fsayF0dTHTh2Xh5ZhqXKAyAX68QZtd6xyOEb0aclXTm0UJR/UWlhGD1aZNHL+vzeOYYP2BbKlQPsUYkabsrFmPFad29Xny7umycKvuJ1DCiQxnn8+yCpfs747pQjSxr5jBekwQxwb0Znds8Seai2Xm/uq2Kh5ahRIlE5QwDrXxCH9zJeQ7xOKqV9AoIZ84We2+TIMpau3hVsOcCad6FOH9VFzKhdN9zxGne/4O60csMe4jggeMMvnNKbfhr+oq5dRplU/R93N1uWjqIiVdvLM44Jd2rId/NPseodNc0+YHcvdvnCiMlLaOJM6257DgzvQtUXZgpmju1G5UvklWf0g9ytXKVdlWcx9IYPAOyMt5SkOWpb7CKdLVNq2rR4uBypwQcVgtglq3eKUh+BwQfpgG5NxQdm0fzZfG1Ew++zdM1Och/otUtdla3vQgV8Ji2b3k8UcDUHgkDUBcTNzKfPX+n9h0/yGRKvATY95M+d0eSZUtRSRTP0IeMXik5HQbH2LtQ61UrQWIVOLUZYRTt/+bb4eTJuJMJ7MVvGVKKtXeP2Q5XaYQVm67JRohOLJaB94K4D1s9/A6W595t3H4pfjZGt3zsK/+DCgH8YTBNPG9lFnmWmuHP/MU2bv06OvKAa/OQ5azQvHeXPnUn8iovOtZvaq1Uz+4F/47MXbsiRvvYbAmbVivaWgA8DS83Qo3SEJe+wsZnB3IAJwUjR/FnFDTY+0K8fWSyCKL+P28eX0ZWDC6h21eKi9p/fKgL4fZCkj3IyIR0+k1T76vqEGyXMGiEQxOYSVAwwPjAulDezpmXupInjUdVyhUTJqBmju4p/V1sS2IqQKeLGjileF9xY4lc8cmdLJ15DvP8sYdDYBUobhoKCz9/gCt5AcwBXzsfd/Pptv+/0UFokKLhLQcHPnFnTUtN65eVZFhRcaAaPW0hZijWlwlXai0fW4s2Udhoad9/9Mny4B1aMmYUMU+aqFYsNCmYZVJefLGXk5CXySF+v37yXR5azfN1u8XOuF6xeYPbH78OUNnwISBDAYXk2pEM9zfY9vVYkbFHF0vkpdizbaiP58tVbm/vZDwpmR1+81H+1wLmNWrN7vWgO4G7de2T4x/M6xguCKWMonM+0uwQsndZ27U8u9SuZFPQxL/iBwaaD24bXHw+VnoHIPYgaOZI4RsNoR80pdCR43zTvNEKO9IG8OuwutzVIVkYfRD0hf9caS3q4ue0xZHqw5dL4hSCunlMpEcSZEvTZM+R022qDexTBX7P5gBzZBqwI2Rtcs1Rb7wUEBbWDO4VEcwD3Px/TkK/ffvAOJDKmTWbyBgW8Kdv1HC928tSoWESeZZaWJmVi7+rSyJVhjkHvD6hW7mPkke0JKhdXq7otBsgjy8Ny3sjJS3WdiTMHlv2wy3Wwh0uIrln2/OUbKlCxLb14ZTspAUa4UbLE0p85sMNdtQxLcELJns9ffm++NNeEmSstuknMFEo5cEZ442PqH5Dblid7OnFsCkSvdVz7U+/OjURTaWZ5PpM4B46eL49YSIecFfcB5uVYGeH3Ut01aQ0IVFWL+/o1c+EGq8+ITZmzhjr2nmgzQRwgJw67J0NyEIeUgKqNbatFY4eeE+jGHa98c1tTrm43eWRfFq/Sb+IiOHPfjMwK4GDn/pPiVyQf1q1WUhybCnWVXAxRcf3qpaiWbCLrn8CeY6bBLh8U/4QTZ6/azFINs45te/Upg4HCz7ZeP1CPJR4sPaNpe3BYvWm/2IFoSz+jObOkpXixY8pRyITl9zzlWtpErdHhExfT6s0HbDbXDGkFqD5hb1bpVOB87LQVNnGTpTmACyW3/RqdPHuNDh2/II6rVyisub8gegu26DqaRvZp9Ud7G9ztP3z8XI6YOVwbVJJHJAoxM8eCi82sxZvkSN3AMbY/cztxlvmlcbBsdeq8fn1PtcKu874j5njnGAcnXIexgQoFS0M6lO0oUaOTRYo2m6rXsFk0afZqmw3ejFas3yuP7Mf5y7fMbqiP/PFVm6zT6SYomgO49+8/0l9+dvoelAEcdG1bVx6Z7tK1O2KrfgfXmqKYpN9ChhnTaO/RyHxDAWajWYs2yiPmSFabedGxVDFbS+g2YKo8UtPOY3yw32HPX76VcpVpIW6SgwvKLyB4s7U8LEt68/YDla3dlbr0myJqNFoLZgBbdhsj/t3twdLVO0WgaW9GTVkmj9Rs3HFE981SqjQHcP5V79+665g88sqzUqnlgjseFKXNkjElTRrqRklkw/X5K7bSPza2jdreYPm0Qsl84hg1p+49eCqOmWM5d+mWuANVtTmYlhRVoFUSPohVoMPEhiCK4VoLSv0gNwvFQo0rHdaAjWYoqouZQNScdDRYvl62djd16/+vWCq0ZDCPHcjYaFS+vrsowmzrM29GeI1GG4IhLPnbE+Tuo5KDCuRKdh+kTz6xHjQHcMif6uBSU468INESb3YonC+LqDytAlOTNZv1payGIA4dGIwypkuueWmW/bZ0Wl/vUgC4o2aOy623/x09goKZCGs1yNcDaredMdysqNh7+Kw8sh1ImK7XcqBVutJUMAQSFZy7W60jgi1DIF+9aW8qWcON5i7dIs/qBx1k8pZvRfVbDxQ9wO0NgjhsuplpR6s6qJyhWoUBN7G2kNZgpDmAe2t4k5UumlOOvOCOYcSkJeKOF1vPV85Wb2mEbb5YNpi+cD1d2DeXwoYJQ3H/iU5/WahCc0iXyRD8pk+dVBwjh+Xy9XvimDmmBrXKyCPTYfbBuXXwFqxU0bLraHmkzYDR8+SRbcEyJnpDJ8leSxSf/VfHIs1YChs8bgGlyltfzNSa0urQUWCGDK0j0Zs7RylX0X7QnHQCtMlCnmZFZw9q0GaQKMthCwnxqvC99x81Vyz/mtOaEXHE+BmedPOOtu5CKpIniS+PtDl9wbY2bmjuhZoiKfpyThQ/6D6n1lH4ccnUPlREtv2o23KAmBY2B2qW7fQcK94gJZzcHCKJVm9okuziXFEc21rvU79QRzB+HLWdbp+/fKNnL17LUfDALHHC+P/Ikenw/rbGbEc8w2t7asdMOTLd5Wt3xYxMcNc8UpE0UVx5ZDp7SzFApf58OTNQ59Z1KJyPRuCJE8b1TmdBQPYEuysNH5JYofv24wcdO3WJps5bZ5G/b+IEcZRSabCJwJ52yOP9NW+SV/kRn6+9T98NASA63/QcMkOUz9J7SVrlPQ4oQqtnXTQj43XcuUZpKl0st9e5MGG8c+fxWuA1AaQI9B42S7Tls9bu31gxotKuVeM0d7jArH6mok3kyDZoDuDwQ3nvlCdVatBd3Kn51LBWWRreu4U4xhb8Fl1+L4OqSp0ikeH3bEmpkickp6a9xR0oMw166iHYRmBx/+Ezyl+htXyGOaKubepSp5a15Mh0yL1C9xRm+8KH+1seEaVNldhwvfZaZMENDpqkY5YD//EMm/58vvY+ffv+3a5n2PSAoC6UjOAwkxycN4MeHZypfXMnOTJdvVYDRQ9oW6J5CRVvRJfOI6lkYd/LqIDm9sbkwIql8lH6NF5Ld+ZAs1jcuSARf9fKcTRmQFvR048FDoF2704NvXMHJ9vhbiGmr7w50ssj02E2hIM3+4HZHeMDN9iY8cEDmxIw24LzHLxZhs/X3ufD0YM3QH678fUIzuAtUfzYSsEbVv/8TljZAs0BHGD9v0WjKiLfza9hExbLI6LF//amf2JGkyN11279Jy46zdxGkFOFwnR86zQqXjC7fJb5J1aMaN47T3EBWW9m7Rtm3+LHjUUFcmeSI9OhFhljjIUEToqtO6fPXy+We21N6Chx0yvdXufNnp6yZU5New6ekWe83Lr3UMy8pU6eiCJFDE//PULkelM+q+6rIYLHDtdarv3FUsCU4Z0ozj/R6eLVO6LQJPstRvQoNHeCByWI55WP1aj9ULp28z9xzBwPZmEPrJ9EESOEl2dMN2ziYnrx0vZ6RDLGmFaTh7kpreBh8uiXDdZCVJqBgzFTl1OurGkprJ/ETcz2dOozWWyJxsYGtG/SYxZuxsINYoME6rCs2rSfspZoTulSJ6Vdq8ZSwTyZucyID7WrFKechn8bQF0hv0E2cyzFC2VX+hlE7tsV3rXMGAsBenRs4D2pocXSNbtsdgOXcgCHrdBXb9ynFg0ryzO/Ichau+X3kt24Qe3kkXkOHLtAjWqXFccIEGu79KNKDXoYvodKdGL7DBrZt5V4ztEhWd1o6MTFInGZOS73tvXkkelQOgF3nYwxFhJUK19IHmmzaOUOeWR7lAM4QJXuVo2riNIifvUbNdf77r1Ivqz+BnpaTZ23VvT0jBwpghhjNwuWU5t1HEGtuo2mSBEj0MV986inIdJWrfNiz7DTZ+uyUaIVGV4bzJLi9WGOq0yx3JQhrfZWdOiM8uWL41XgZ4yFPNkypaa4/8SQI9OhqDe6F9kqswI4bC5AV/7R/dvIM79h10lbj3Fi6jFMmNAiqMqWMZV8Vg0CQizrZPTzgYRg5djpK+LPq9jAQyRr7/AcQ1uWjhS7ThxFq0ZVRCszePb8tajxxBwXUhjqVishR9rsPnjarupxMcZYQHp2dP4j3SsoWIXoMXi6HNkmswI4QHuR+w+eUq0qxeSZ31C9GrNAgBcPGw/MhXY+M8e6y9GfMONUrXEvqli/Oy1ft4f2r5tEi6f2oXrVS8qvCJnw9zPW+Hrx6q0o/WCJIo3MfoT7OyzlzZFBjkyHVjHorMIYY/auROEcIk9eq2OnL4vC0rZMeReqT1du3KOB7s3p8bOXfzSJPX7miqgUjWUc1HLLnik1bdh2WFRjVvH02WvKnS0dRY0SKcDG3Pi9X75+R2cv3qTpC9bT32HDUqkiOalzqzqUPXNqUVDw4+cvIldPK8zolSmeR/RrTZMyMX3++lW5abZeUFF6sIcLxYsbS4x7DJ5Bh05cFMfMcbVuUpVKFc0lR6ZBviQaeHPLNcaYvcMqxMBuzSh5Uu0pVcMnLhGxjS3T3IkhIFEiRaCdq8aRx6DptOeQ712PKCdy7fAi8WKCuS2d0ArjyOaplLZAA80J+tjJis0OCMQwU7V19zHqOdSrvRB+q8B+v5qVitKEIR3kyAtmK9Lkdw62jQLYXXhq50zvXbgHj12gOi248Kqjw8/c9SO/azKaCjc+BSu1Vbq5YYwxW4K88KsHF1K4cGHlGdPg8zxRtppyZLt0mYGDb99/0F5D4IZct+cv39BdH8nzyIPbse8klSuRV9SiKpQnM4UOHYoOK84SYWnwn1jRqX6NUmI2Twv0/Zu1eBOt3LCXbt17LJrke7R3pp5uDcQ0Kx7pUiURhXBv+GmqO2tcd4oeNbIcecHSMCrcexp+v+AwfnAH8f0CulYgeLPVLc/MerDZB5uHtEJP1pkLN8gRY4zZr6XT+irNvvUYMjPAFT5botsMnBF2fy6d3peWrNpJE2f5nmVD+60Jg9uLQrOYuarepJcoxKsCje6XTe8nkvXjxI5BUSJFpHnLt9D85VtFk16tUNwvUYLYNNC9mRhjiRZix4pGr16/p8iRI4gGzf758PEzla/n/sfysSXhzmLmmK5UqojXEhk+eKs07BnsDd1Z8MNsLMrqoNC1FqjhmDi77d91MsZYULChD1UZtHpv+DwvWrWD1Zrrm8PsTQx+3bn/mMrV7Sa6MaxfMJSi+Zix2nXgFI36d5k4RqmL1XMHK/dL/fH9J8WIFkUUrEVghfw6txa1aMXMAWKJVSssGWGXay2XfuJRpVEP8ajaqBc17TicPNcHzwxbQJZM7eOrH23NZn05eGNCr04NNQdvgBsgxhgLCfxWqzCV5/o9dvNZqnsAB0jqRzeGBSu20Y4VY6hm5d87VBev3OGd/4Y8nfULhokWWVqVLJLTux6cT6lTJCKnSkXlSB16r+KBmS081m45IJ/506fPX+j12/dyZHlTR3am/LkyipxCBMzZS7qIZruMxYwelSqVzi9H2uw7fE4eMcaYfevUqrY8Mh0CN+zAD66cdq0sEsDBl6/fRMmPCvXdqXyJvHRy+wyqaPhgiRAhnNjEMGn2avF1mIlD3872zZ1EvThTFcob8LbgPNnTySP93Lr7iBZ6bpMj3zbuOEKv31g+gEO+3crZA6lK2YJijDo185Zt4Zk35i1d6iRK7WJwA7Bz/0k5Yowx+4VuRCo1YC9euSNSouyF7jlw/gkdKhQVyJOJnCoUofy5M9LWXcdo0aodVKJQDurXtYn8KqJx0z1ptFxiDcrMsd2oQsl8cuTb5l1HybWz9rXvoCBPrmThHNTLraH4kMSS666Dp0W1++LVO8qvspx5E3uIciiYeUPA6NplFB05eUk+yxiJVIKMaZPLkemu3/pPbD5ijDF7hzJfkSNpb1qPG1l76l5klQDOp/hxY5Fbi5qUJ0cG+vr1m3f+mtGUOWtEdwfM4AWmeoXCNHmYmxz9hlmpsdNX0IQZK+UZywof7m/atHg4tes5wWKNv5HPhN00aN5vlLO0Kz15ZvtJlowxxhjTn9UDOCPMykWMGF5Uip8/qYc86wXVj/OUaylH/sMs1Jj+baiOn1ZBiJ5L1uxs1S4EKCPS3qUGNWgzWJ7RD2YZp43uIl4vozWbD1DyJPGoorOHPMMYY4wxRxJsAZxfCIKmj+4qugrAoycvRBuuZWt3i7F/QoX6S5TRMObDoR/q/sNnxTZga4oQPhxtWjJC9E3D96AH5Lv169KEalctLjZ7AIr0duo7mcKEDkU7V44T+YU37zwUzzHGGGPMcehWyNdcmHVbsnqXyPFCnbhoUSKJNkCoDP/0+Wt/EwuxUQSbC9D5AQ8UskVBYWvDsi123tapVpI2bNdWWNg/KZImoI2LhlOxAtnob0Mghx0xA0bPox5DZohyJ2/ffxR16lBd+tK1u/L/YowxxpijsJkADr5++04r1u0RddyyZkwlepYioMPu1Zev3tLVG/flV9qem4bgsWGtMhQqVCi6pFicGMYNbEcD3Jt6z0S+evOOytTuSnsPnfW1tRn5b11a1wl0hpIxxhhjIZNNBXDw4+dP2rn/FF27eZ/Spk4qgjnMNlUolU80j0eTbWvWXDMVgivMwqHP6urNBzT1ksRScPFCOWjFzP6UL1dG0WUBdh84Tc5tBtPDx8//qEvzzRDsol3S3KVcfJUxxhhzNDYXwBlhOXSR53bKmC45JUkYV/ROTWsI4BrWLEMRIoQXfcowY2dL0EorUsQIVKNSEZN6tKLuXZqUScQO0xYNK4syJYDl4rotB4haeR8/fRHn/AodOjTVqVpc1IDjPDjGGGPMsdhsAAeYdVq39aDYGPBPzGiiKS0CuTzZ01PtKsUohWF89uJN0VfVVpw6d41aNa5qCMI+0dWbAS/5opMCdtF2a1OX4sWNKc+SKHLce9isIHPbwoYJQ/WdStF/D5/R6fPX5VnGGGOMOQKbDuCMHjx6LkpnYLMAllSRH4aZriwZUpJzjVKUPnVSevHqLT188kL+H8EHS8AoiopK0AjCfNZqQ5ujnFnT0OAeLuTR3pkSJ4wjZuEQqJ6/fJtqu/ajrbuP09t3H+X/ETBjALdu2yHRTosxxhhjjsNmyoiYCgEPOjig/ZZPP3/9omfPX9OqTftp2IRF8mzwQaHh8YPaU9KctUVD/ynD3ahArkyiPAhy3oywe3bSrFV06tx1EfyZCqVLNi4aJmreMcYYY8yx2F0AZ4SNDTUrFaWWjav80fMMeWP7j56jnftOilZT9x48lc9Yj3ON0uTRoT79+PFLdFLwC5sPlq7ZRZeuqe1YzZUtLQ3q3pzK13OXZxhjjDHmKOw2gPOparlC1KxeBUqcMDbFjf07n8wIfUPPXb5FoyYv9d7BqldQhzZgqFmHmcH8uTJR+ZJ5Rf02/2CzAfLVRk9dJureqcKftW35aJErx71QGWOMMccTIgI4I2x0wAaHgd2biZ6r/nn33iu/7NHTl+LXk2ev0Zt3H0TZktWb9otzAcHv79qwsvdxtkypKGrkiBQ5UgRDUBWGIkYIJ57zC7tJ2zd3EjtLDxw9L8+qQ128ge7NqGCltkH2jGWMMcZYyBOiAjifkiSMQ9kzp6ECuTNSpvQpKFvGVPIZy0NeGzYy7Nh3km7fe0zPX76mlo2qULXyhWnRyh20accRUaBXBVqHDevlStWa9DJrFo8xxhhj9ivEBnD+wVJr0fxZqUyx3KIcCWqphfs7rFiS1MpYn+3Hjx/0+cs3+nfuWjp1/jqdvXhDnPdPwvj/0MZFI+jRk+dUv/Vg+vL1K339alotO2x8yJczI80a2436jpxLKzfslc8wxhhjzNE4VADnE5Y7o0eLQgnj/SN6rxqFNQRzeXNmkCMvHz9+oTN+ArOLsl3Wq9fvNC9jIoBE4d6YMaKKQAzBX2BcnCuKmTd0aHAfOJUL9zLGGGMOzmEDuOCGWb/smVKLenExokcWM3GoZYc8PNS7y5A2mcjni2kILj98+kxrtxyk+cu3yv+bMcYYY46MA7hgFjpUKAoVOhSF/zssJYwfmwrmySzOf//xg3YdOCX6qyK401IjjjHGGGMhGwdwjDHGGGN2JpT8lTHGGGOM2QkO4BhjjDHG7AwHcIwxxhhjdoYDOMYYY4wxO8MBHGOMMcaYneEAjjHGGGPMznAAxxhjjDFmZziAY4wxxhizMxzAMcYYY4zZGQ7gGGOMMcbsDAdwjDHGGGN2hgM4xhhjjDE7wwEcY4wxxpid4QCOMcYYY8zOcADHGGOMMWZXiP4PF2pLo9U8sAUAAAAASUVORK5CYII=;" parent="1" vertex="1">
                    <mxGeometry x="1070" y="40" width="235" height="56.11" as="geometry"/>
                </mxCell>
                <mxCell id="10" style="edgeStyle=orthogonalEdgeStyle;html=1;exitX=0;exitY=0.5;exitDx=0;exitDy=0;entryX=0.5;entryY=0;entryDx=0;entryDy=0;strokeWidth=5;" parent="1" source="4" target="6" edge="1">
                    <mxGeometry relative="1" as="geometry"/>
                </mxCell>
                <mxCell id="11" style="edgeStyle=orthogonalEdgeStyle;html=1;exitX=1;exitY=0.5;exitDx=0;exitDy=0;entryX=0.5;entryY=0;entryDx=0;entryDy=0;strokeWidth=5;" parent="1" source="4" target="7" edge="1">
                    <mxGeometry relative="1" as="geometry"/>
                </mxCell>
                <mxCell id="4" value="C2NG&lt;br style=&quot;font-size: 28px;&quot;&gt;Platform" style="rounded=1;whiteSpace=wrap;html=1;fontSize=28;fontColor=#ffffff;fillColor=#407bffff;strokeColor=#3700CC;" parent="1" vertex="1">
                    <mxGeometry x="559" y="210" width="242" height="134" as="geometry"/>
                </mxCell>
                <mxCell id="9" style="edgeStyle=orthogonalEdgeStyle;html=1;exitX=1;exitY=0.5;exitDx=0;exitDy=0;entryX=0.5;entryY=0;entryDx=0;entryDy=0;strokeWidth=5;dashed=1;dashPattern=1 1;" parent="1" source="5" target="4" edge="1">
                    <mxGeometry relative="1" as="geometry"/>
                </mxCell>
                <mxCell id="5" value="External Owner" style="rounded=1;whiteSpace=wrap;html=1;fontSize=28;fillColor=#d5e8d4;strokeColor=#82b366;" parent="1" vertex="1">
                    <mxGeometry x="100" y="70" width="242" height="134" as="geometry"/>
                </mxCell>
                <mxCell id="15" style="edgeStyle=orthogonalEdgeStyle;html=1;exitX=1;exitY=0.5;exitDx=0;exitDy=0;entryX=0;entryY=0.5;entryDx=0;entryDy=0;strokeWidth=5;fontSize=29;" parent="1" source="6" target="7" edge="1">
                    <mxGeometry relative="1" as="geometry"/>
                </mxCell>
                <mxCell id="6" value="&lt;b&gt;Remote Pilot Station&lt;/b&gt;" style="rounded=1;whiteSpace=wrap;html=1;fillColor=#dae8fc;strokeColor=#6c8ebf;fontSize=28;" parent="1" vertex="1">
                    <mxGeometry x="130" y="500" width="350" height="130" as="geometry"/>
                </mxCell>
                <mxCell id="7" value="&lt;b&gt;Air Vehicles&lt;/b&gt;" style="rounded=1;whiteSpace=wrap;html=1;fillColor=#dae8fc;strokeColor=#6c8ebf;fontSize=28;" parent="1" vertex="1">
                    <mxGeometry x="860" y="500" width="350" height="130" as="geometry"/>
                </mxCell>
                <mxCell id="12" value="Verifiable&lt;br&gt;Credential" style="text;html=1;strokeColor=none;fillColor=none;align=center;verticalAlign=middle;whiteSpace=wrap;rounded=0;fontSize=29;" parent="1" vertex="1">
                    <mxGeometry x="150" y="360" width="121" height="70" as="geometry"/>
                </mxCell>
                <mxCell id="14" value="Verifier&lt;br&gt;Configuration" style="text;html=1;strokeColor=none;fillColor=none;align=center;verticalAlign=middle;whiteSpace=wrap;rounded=0;fontSize=29;" parent="1" vertex="1">
                    <mxGeometry x="1070" y="345" width="180" height="70" as="geometry"/>
                </mxCell>
                <mxCell id="16" value="Remote Control&lt;br&gt;Access Request" style="text;html=1;strokeColor=none;fillColor=none;align=center;verticalAlign=middle;whiteSpace=wrap;rounded=0;fontSize=29;" parent="1" vertex="1">
                    <mxGeometry x="530" y="480" width="290" height="70" as="geometry"/>
                </mxCell>
                <mxCell id="17" value="&lt;font face=&quot;Arial, sans-serif&quot;&gt;Verifiable Credentials&lt;/font&gt;" style="text;html=1;strokeColor=none;fillColor=none;align=center;verticalAlign=middle;whiteSpace=wrap;rounded=0;fontSize=46;" vertex="1" parent="1">
                    <mxGeometry x="380" y="20" width="655" height="76.11" as="geometry"/>
                </mxCell>
            </root>
        </mxGraphModel>
    </diagram>
</mxfile>